<?xml version="1.0" encoding="UTF-8"?>
<svg id="Layer_1" xmlns="http://www.w3.org/2000/svg" xmlns:xlink="http://www.w3.org/1999/xlink" version="1.1" viewBox="0 0 496.6 369.08">
  <!-- Generator: Adobe Illustrator 30.2.1, SVG Export Plug-In . SVG Version: 2.1.1 Build 1)  -->
  <defs>
    <style>
      .st0 {
        fill: none;
      }

      .st1 {
        fill: url(#linear-gradient);
      }

      .st1, .st2, .st3, .st4, .st5, .st6, .st7, .st8 {
        stroke: #010101;
        stroke-miterlimit: 10;
        stroke-width: 3px;
      }

      .st2 {
        fill: #9e7ab7;
      }

      .st3 {
        fill: url(#linear-gradient3);
      }

      .st4 {
        fill: url(#linear-gradient5);
      }

      .st5 {
        fill: url(#linear-gradient4);
      }

      .st6 {
        fill: url(#linear-gradient2);
      }

      .st7 {
        fill: url(#linear-gradient1);
      }

      .st8 {
        fill: #fff;
      }
    </style>
    <linearGradient id="linear-gradient" x1="340.56" y1="570.71" x2="404.3" y2="570.71" gradientTransform="translate(0 702.13) scale(1 -1)" gradientUnits="userSpaceOnUse">
      <stop offset="0" stop-color="#67308f"/>
      <stop offset="1" stop-color="#a73d97"/>
    </linearGradient>
    <linearGradient id="linear-gradient1" x1="230.12" y1="460.94" x2="362.55" y2="460.94" gradientTransform="translate(0 702.13) scale(1 -1)" gradientUnits="userSpaceOnUse">
      <stop offset="0" stop-color="#67308f"/>
      <stop offset="1" stop-color="#a73d97"/>
    </linearGradient>
    <linearGradient id="linear-gradient2" x1="209.21" y1="521.45" x2="309.86" y2="521.45" gradientTransform="translate(0 702.13) scale(1 -1)" gradientUnits="userSpaceOnUse">
      <stop offset="0" stop-color="#67308f"/>
      <stop offset="1" stop-color="#a73d97"/>
    </linearGradient>
    <linearGradient id="linear-gradient3" x1="125.5" y1="524.78" x2="253.02" y2="524.78" gradientTransform="translate(0 702.13) scale(1 -1)" gradientUnits="userSpaceOnUse">
      <stop offset="0" stop-color="#67308f"/>
      <stop offset="1" stop-color="#a73d97"/>
    </linearGradient>
    <linearGradient id="linear-gradient4" x1="24.08" y1="569.48" x2="165.71" y2="569.48" gradientTransform="translate(0 702.13) scale(1 -1)" gradientUnits="userSpaceOnUse">
      <stop offset="0" stop-color="#67308f"/>
      <stop offset="1" stop-color="#a73d97"/>
    </linearGradient>
    <linearGradient id="linear-gradient5" x1="396.38" y1="507.28" x2="474.78" y2="507.28" gradientTransform="translate(0 702.13) scale(1 -1)" gradientUnits="userSpaceOnUse">
      <stop offset="0" stop-color="#67308f"/>
      <stop offset="1" stop-color="#a73d97"/>
    </linearGradient>
  </defs>
  <path class="st2" d="M485.86,197.15c-.33,1.15-.1,2.36.61,3.32,7.25,9.88,6.04,60.98-6.1,73.83-5.17,5.47-27.53,3.81-46.62-3.21-15.66-5.76-28.77-16.77-31.33-16.49-5.8.6-36.99,1.53-60.28,2.51-7.9.33-20.84-4.89-21.85-3.51-6.42,8.69-8.9,116.12-17.35,113.94s-79.42-16.04-95.48-24.56c-16.06-8.52,37.4-94.15,18.27-96.48-7.64-.93-12.79,10.3-25.19,14.19-17.05,5.35-34.4,6.01-44.26-10.6-10.83-18.27-27.54,6.41-50.84,6.41S-1.21,77.73,1.8,59.96h-.02C4.79,42.18,97.01,8.84,103.7,13.36c6.69,4.51,13.09,82.02,22.86,85.78,9.76,3.75,44.3-12.7,79.02.8.13.05-2.47-.75,2.05.79,5.93,2.04,1.27,8.21,6.11,12.69s47.65-1.4,53.62,2.25c10.99,6.72,10.98,8.41,13.24,11.09,1.57,1.86,28.5-8.26,30.18-8.68,10.58-2.65,13.22.21,21.95-1.55,3.24-.69,8.96-78.02,12.6-88.08,3.73-10.27,50.54-30.82,61.06-26.32,10.52,4.51,6.87,116.69,12.78,113.19,11.87-7.03,48.01-4.67,59.58,6.29,11.57,10.96,12.87,13.8,15.88,25.26,2.6,9.9-6.32,41.75-8.8,50.25h0l.03.03Z"/>
  <path class="st8" d="M11.06,62.92c-3.39-7.33,68.27-35.44,76.74-40.01,13.23-7.12,26.53,94.36,26.5,96.29-.06,6.29,4.36-1.91,8.78-5.88,4.45-4,73.26-8.51,77.15-2.29,2.46,3.93.72,14.6-.93,22.03-.23,1.02,1.15,1.55,1.67.64,1.87-3.32,4.16-6.81,6.09-8.05,4.05-2.6,50.97-2.58,56.69,0,4.42,1.99,3.87,7.01,3.39,9.19-.12.54.29,1.06.84,1.09l21.2.93c.2,0,.4-.05.57-.17,1.73-1.26,12.25-8.59,23.21-8.46,11.01.14,24.14,3.7,27.2,4.61.46.14.94-.11,1.1-.56,3.28-9.4,14.91-102.19,16.8-104.06,4.14-4.13,29.44-14.25,38.81-15.39.29-.04.58.07.77.29,6.59,7.64,12.05,86.49,10.69,112.53-.16,3.1,3.14,5.16,5.86,3.69,4.5-2.43,14.63-7.64,20.38-8.23,27.49-2.8,36.54,6.24,39.97,9.06,9.53,7.82,9.91,30.96,7.64,39.25-2.79,10.2-4.13,21.53-13.09,20.31-9.61-1.3-25.47-1.54-35.35-2.5-13.89-1.36-5.23,13.25,1.5,15.79,4.46,1.69,12.29,5.8,39.28,2.8,8.27-.92.3,42.15-2.98,58.44-2.69,13.33-52.99-5.89-61.95-19.6-4.83-7.4-1.33-3.87-5.72-2.16-21.17,8.27-73.39,8.68-72.05,1.92,3.35-16.98,5.32-15.57-.66-14.47-.04,0-.08.02-.11.02l-15.79.96c-3.33-2.05-18.49,115.58-21.34,120.45-3.64,6.21-66.88-12.58-74.9-17.07-7.64-4.27,29.59-86.96,34.49-97.75.26-.57-.13-1.21-.75-1.27l-31.07-2.68c-1.91-.75-9.83,10.69-23.75,13.24-14.07,2.58-32.82-4.33-38.23-10.15-2.93-3.16-4.61-5.83-5.55-7.94-1.03-2.29-3.9-3.03-5.93-1.56-9.08,6.6-29.53,19.03-47.54,12.95-8.01-2.7-82.46-160.78-89.61-176.22v.02-.02h-.02Z"/>
  <path class="st1" d="M389.2,22.03c1.74-.81,3.75.39,3.85,2.31l11.25,208.24c.1,1.85-1.29,3.45-3.14,3.6l-56.87,4.87c-2.18.19-3.97-1.68-3.7-3.84l25.35-202.52c.16-1.25.98-2.31,2.16-2.77l21.1-9.88h0Z"/>
  <path class="st7" d="M304.27,139.62c-.9-.03-1.73.51-2.07,1.34l-.75,1.83-71.09,184.21c-.75,1.94.39,4.11,2.43,4.58l49.31,11.5c1.9.44,3.79-.78,4.15-2.7l21.76-114.13c.35-1.81,2.05-3.02,3.87-2.75,11.71,1.74,51.18,4.19,50.67-42.15-.53-48.49-50.05-42-58.05-41.73h-.23Z"/>
  <path class="st6" d="M258.55,226.24c2.26-.15,5.35,1.86,3.02-4.55-2.5-7.15-6.68-22.28-3.76-36.72,3.81-18.84,6.75-18.27,20.2-20.35,9.09-1.4,17.32,2.57,21.71,5.28,1.79,1.11,4.15.36,4.98-1.58l4.89-11.54c.68-1.61.05-3.48-1.47-4.33-4.7-2.65-15.34-7.81-28.76-9.19-7.17-.74-12.48,0-16.28,1.15-2.8.85-5.29-2-4.12-4.67h0c1.02-2.32-.74-4.9-3.26-4.81l-43.16,1.54c-2.62.09-4.18,2.96-2.82,5.21,5.4,8.94,16.34,27.79,19.48,38.93,3.2,11.36-5.03,33.3-9.2,43.26l38.57,2.37-.02-.02h0v.02Z"/>
  <path class="st3" d="M161.46,222.79c5.79,9.2,16.19,11.48,17.57,11.74.11.02,0-.02.11.02,12.19,3.82,27.52-3.32,27.52-3.32,0,0,21.05-9.3,30.29-26.65,6.71-12.6,12.85-24.81,15.71-30.55.9-1.82.05-4.03-1.86-4.74l-42.42-16.06c-2.42-.92-4.95,1.07-4.62,3.64,1.27,9.97,3.47,30.22,1.36,37.47-.9,3.1-2.67,18.08-15.29,14.84-9.81-2.53-11.11-23.77-10.7-34.8.33-8.83,11.43-38.91,15.91-50.72.87-2.29-.87-4.73-3.33-4.64l-62.88,2.13c-2.31.08-3.88,2.36-3.14,4.54,6.26,18.36,30.36,88.55,35.76,97.12v-.02h0Z"/>
  <path class="st0" d="M106.68,161.7l5.81,30.51c.31,1.62,1.73,2.79,3.38,2.79h9.15c.6,0,1.2-.16,1.72-.46l13.85-8.01c1.06-.61,1.71-1.75,1.71-2.97v-18.98c0-.91-.36-1.79-1-2.43l-10.35-10.35c-.95-.95-2.36-1.26-3.62-.79l-18.45,6.84c-1.58.58-2.5,2.22-2.18,3.86h-.02Z"/>
  <path class="st5" d="M165.66,170.22c2.07,57.46-52.93,65.41-60.97,58.99-.35-.29-.63-.66-.83-1.06L24.44,68.68c-.84-1.7-.16-3.75,1.54-4.6l58.93-29.5c2.07-1.03,4.54.22,4.92,2.5l16.46,96.58c.36,2.13,2.57,3.4,4.58,2.64,12.78-4.8,52.98-15.88,54.77,33.94h0l.02-.02Z"/>
  <path class="st8" d="M110.33,162.63l7.12,37.39c.4,2.09,2.56,3.31,4.56,2.58,5.99-2.18,16.85-8.36,16.85-24.57,0-17.06-17-19.35-25.09-19.48-2.18-.04-3.84,1.94-3.44,4.08h0Z"/>
  <path class="st8" d="M311.58,191.75c2.21-12.29,3.97-18.29,5.1-21.21.63-1.63,2.4-2.51,4.09-2.06,6.88,1.85,24.63,7.82,22.24,19.58-2.34,11.51-21.01,9.14-28.71,7.65-1.85-.35-3.06-2.13-2.73-3.98h0v.02Z"/>
  <path class="st4" d="M473.18,166.33c2.09-5.96,2.2-12.49-.03-18.39-3.2-8.44-10.82-15.66-26.41-17.53-23.39-2.82-36.61,8.34-44.44,23.79s-6.02,36.44-4.9,47.26,12.27,38.02,31.71,47.89c13.94,7.08,26.14,9.51,31.93,10.33,1.94.27,3.72-1.14,3.89-3.09l3.47-38.49v-.02c.22-2.31-1.88-4.16-4.16-3.66-6.16,1.37-18,2.5-32.56-3.53-16.25-6.72-17.71-21.78-17.44-28.78.08-2.01,1.87-3.52,3.87-3.26,10.06,1.3,47.26,3.51,49.88,2.28s5.19-14.81,5.19-14.81h0Z"/>
  <path class="st8" d="M427.08,166.36c12.18.64,22.99,1.88,28.9,2.63,2.54.32,4.79-1.31,4.42-3.23-.89-4.74-4.1-12.4-15.47-14.57-11.88-2.28-18.32,6.12-21.08,11.25-.97,1.81.65,3.79,3.22,3.93h.01Z"/>
</svg>