<?xml version="1.0" encoding="UTF-8"?>
<svg id="Layer_2" xmlns="http://www.w3.org/2000/svg" version="1.1" viewBox="0 0 328.98 388.17">
  <!-- Generator: Adobe Illustrator 30.2.1, SVG Export Plug-In . SVG Version: 2.1.1 Build 1)  -->
  <defs>
    <style>
      .st0 {
        fill: #851619;
      }

      .st1 {
        fill: #5d0a0c;
      }

      .st2 {
        fill: none;
        stroke: #000;
        stroke-linecap: round;
        stroke-linejoin: round;
      }

      .st2, .st3 {
        stroke-width: 2px;
      }

      .st3 {
        fill: #dc9227;
        stroke: #231f20;
        stroke-miterlimit: 10;
      }
    </style>
  </defs>
  <g>
    <g>
      <path class="st1" d="M308.83,388.16h-48.28v-2h46.28v-223.75h1.33c.21.37.44.74.67,1.11v224.64Z"/>
      <path class="st1" d="M308.83,162.41v1.11c-.23-.37-.46-.74-.67-1.11h.67Z"/>
      <polygon class="st1" points="260.55 214.8 260.55 386.16 260.15 386.16 258.55 383.24 258.55 217.72 260.15 214.8 260.55 214.8"/>
      <polygon class="st1" points="260.43 214.28 260.15 214.8 258.55 214.8 257.86 214.8 258.67 213.32 260.43 214.28"/>
      <polygon class="st1" points="260.15 386.16 260.43 386.68 258.67 387.64 257.86 386.16 258.55 386.16 260.15 386.16"/>
      <polygon class="st1" points="260.15 214.8 258.55 217.72 258.55 214.8 260.15 214.8"/>
      <polygon class="st1" points="260.15 386.16 258.55 386.16 258.55 383.24 260.15 386.16"/>
      <polygon class="st1" points="260.55 388.16 165.68 388.16 165.68 387.42 166.37 386.16 257.86 386.16 258.67 387.64 260.43 386.68 260.15 386.16 260.55 386.16 260.55 388.16"/>
      <polygon class="st1" points="260.55 212.8 260.55 214.8 260.15 214.8 260.43 214.28 258.67 213.32 257.86 214.8 166.37 214.8 165.68 213.54 165.68 212.8 260.55 212.8"/>
      <polygon class="st1" points="258.55 383.24 258.55 386.16 257.86 386.16 212.12 302.57 213.26 300.48 258.55 383.24"/>
      <polygon class="st1" points="258.55 214.8 258.55 217.72 213.26 300.48 212.12 298.39 257.86 214.8 258.55 214.8"/>
      <polygon class="st1" points="213.26 300.48 212.12 302.57 210.97 300.48 212.12 298.39 213.26 300.48"/>
      <polygon class="st1" points="212.12 298.39 210.97 300.48 165.68 217.72 165.68 214.8 166.37 214.8 212.12 298.39"/>
      <polygon class="st1" points="212.12 302.57 166.37 386.16 165.68 386.16 165.68 383.24 210.97 300.48 212.12 302.57"/>
      <polygon class="st1" points="209.47 82.92 209.47 156.63 207.83 156.63 207.83 156.41 209.1 154.86 207.47 153.53 207.47 86.02 209.1 84.69 207.83 83.14 207.83 82.92 209.47 82.92"/>
      <polygon class="st1" points="207.83 83.14 209.1 84.69 207.47 86.02 207.47 84.92 205.66 84.92 207.83 83.14"/>
      <polygon class="st1" points="209.1 154.86 207.83 156.41 205.66 154.63 207.47 154.63 207.47 153.53 209.1 154.86"/>
      <polygon class="st1" points="207.83 156.41 207.83 156.63 121.53 156.63 121.53 156.41 123.7 154.63 205.66 154.63 207.83 156.41"/>
      <polygon class="st1" points="207.83 82.92 207.83 83.14 205.66 84.92 123.7 84.92 121.53 83.14 121.53 82.92 207.83 82.92"/>
      <polygon class="st1" points="207.47 153.53 207.47 154.63 205.66 154.63 164.68 121.07 166.26 119.78 207.47 153.53"/>
      <polygon class="st1" points="207.47 84.92 207.47 86.02 166.26 119.78 164.68 118.48 205.66 84.92 207.47 84.92"/>
      <polygon class="st1" points="166.37 386.16 165.68 387.42 165.68 386.16 166.37 386.16"/>
      <polygon class="st1" points="165.68 213.54 166.37 214.8 165.68 214.8 165.68 213.54"/>
      <polygon class="st1" points="164.68 118.48 166.26 119.78 164.68 121.07 163.1 119.78 164.68 118.48"/>
      <polygon class="st1" points="165.68 217.72 165.68 383.24 164.68 385.07 163.68 383.24 163.68 217.72 164.68 215.89 165.68 217.72"/>
      <polygon class="st1" points="165.68 213.54 165.68 214.8 165.28 214.8 165.56 214.28 164.68 213.8 165.56 213.32 165.68 213.54"/>
      <polygon class="st1" points="165.68 214.8 165.68 217.72 164.68 215.89 165.28 214.8 165.68 214.8"/>
      <polygon class="st1" points="165.68 386.16 165.28 386.16 164.68 385.07 165.68 383.24 165.68 386.16"/>
      <polygon class="st1" points="165.68 386.16 165.68 387.42 165.56 387.64 164.68 387.16 165.56 386.68 165.28 386.16 165.68 386.16"/>
      <polygon class="st1" points="165.56 214.28 165.28 214.8 164.08 214.8 163.8 214.28 164.68 213.8 165.56 214.28"/>
      <path class="st0" d="M308.16,162.41h-1.33v223.75h-46.28v-171.36h11.86v-26.28H51.3v26.28h17.51v171.36H22.53v-223.75h-.96c.37-.65.74-1.31,1.11-1.96,2.4-4.12,4.84-8.21,7.26-12.32,4.06-6.89,8.13-13.78,12.24-20.64,3.39-5.69,6.76-11.39,10.15-17.07,3-5.02,5.95-10.06,8.92-15.1,3.38-5.73,6.77-11.46,10.18-17.17.51-.86,1.06-1.69,1.47-2.63.9-2.1,3.01-2.79,4.79-3.83,5.61-3.29,11.29-6.47,16.93-9.69,4.9-2.81,9.82-5.57,14.73-8.35,4.23-2.39,8.41-4.85,12.64-7.25,4.34-2.47,8.71-4.89,13.04-7.38,4.92-2.83,9.87-5.62,14.79-8.47,4.62-2.68,9.31-5.23,13.91-7.95.38-.23.77-.36,1.18-.35.31.01.64.11.98.33,4.31,2.7,8.81,5.11,13.22,7.65,4.32,2.5,8.7,4.91,13.04,7.38,5.37,3.06,10.73,6.14,16.1,9.2,4.32,2.45,8.64,4.89,12.94,7.36,4.93,2.82,9.87,5.63,14.79,8.46,4.33,2.5,8.68,4.97,13.06,7.37,1.8.99,3.54,2.11,5.4,3,1.41.69,2.01,2.11,2.75,3.36,3.83,6.45,7.69,12.87,11.49,19.34,4.24,7.24,8.53,14.45,12.79,21.68,3.35,5.7,6.75,11.39,10.14,17.07,3,5.02,5.95,10.07,8.92,15.1,2.53,4.28,5.04,8.57,7.63,12.86ZM209.47,156.63v-73.71h-89.58v73.71h89.58Z"/>
      <polygon class="st1" points="164.08 214.8 165.28 214.8 164.68 215.89 164.08 214.8"/>
      <polygon class="st1" points="164.08 386.16 165.28 386.16 165.56 386.68 164.68 387.16 163.8 386.68 164.08 386.16"/>
      <polygon class="st1" points="164.08 386.16 164.68 385.07 165.28 386.16 164.08 386.16"/>
      <polygon class="st1" points="163.68 383.24 164.68 385.07 164.08 386.16 163.68 386.16 163.68 383.24"/>
      <polygon class="st1" points="164.68 118.48 163.1 119.78 121.89 86.02 121.89 84.92 123.7 84.92 164.68 118.48"/>
      <polygon class="st1" points="164.68 121.07 123.7 154.63 121.89 154.63 121.89 153.53 163.1 119.78 164.68 121.07"/>
      <polygon class="st1" points="164.08 214.8 164.68 215.89 163.68 217.72 163.68 214.8 164.08 214.8"/>
      <polygon class="st1" points="163.68 212.8 165.68 212.8 165.68 213.54 165.56 213.32 164.68 213.8 163.8 213.32 163.68 213.54 163.68 212.8"/>
      <polygon class="st1" points="163.8 214.28 164.08 214.8 163.68 214.8 163.68 213.54 163.8 213.32 164.68 213.8 163.8 214.28"/>
      <polygon class="st1" points="163.8 386.68 164.68 387.16 163.8 387.64 163.68 387.42 163.68 386.16 164.08 386.16 163.8 386.68"/>
      <polygon class="st1" points="163.8 387.64 164.68 387.16 165.56 387.64 165.68 387.42 165.68 388.16 163.68 388.16 163.68 387.42 163.8 387.64"/>
      <polygon class="st1" points="163.68 383.24 163.68 386.16 162.99 386.16 117.25 302.57 118.39 300.48 163.68 383.24"/>
      <polygon class="st1" points="163.68 214.8 163.68 217.72 118.39 300.48 117.25 298.39 162.99 214.8 163.68 214.8"/>
      <polygon class="st1" points="163.68 386.16 163.68 387.42 162.99 386.16 163.68 386.16"/>
      <polygon class="st1" points="163.68 213.54 163.68 214.8 162.99 214.8 163.68 213.54"/>
      <polygon class="st1" points="121.53 83.14 123.7 84.92 121.89 84.92 121.89 86.02 120.26 84.69 121.53 83.14"/>
      <polygon class="st1" points="123.7 154.63 121.53 156.41 120.26 154.86 121.89 153.53 121.89 154.63 123.7 154.63"/>
      <polygon class="st1" points="121.53 156.41 121.53 156.63 119.89 156.63 119.89 82.92 121.53 82.92 121.53 83.14 120.26 84.69 121.89 86.02 121.89 153.53 120.26 154.86 121.53 156.41"/>
      <polygon class="st1" points="118.39 300.48 117.25 302.57 116.1 300.48 117.25 298.39 118.39 300.48"/>
      <polygon class="st1" points="117.25 298.39 116.1 300.48 70.81 217.72 70.81 214.8 71.5 214.8 117.25 298.39"/>
      <polygon class="st1" points="117.25 302.57 71.5 386.16 70.81 386.16 70.81 383.24 116.1 300.48 117.25 302.57"/>
      <polygon class="st1" points="70.69 213.32 71.5 214.8 70.81 214.8 69.21 214.8 68.93 214.28 70.69 213.32"/>
      <polygon class="st1" points="70.81 386.16 71.5 386.16 70.69 387.64 68.93 386.68 69.21 386.16 70.81 386.16"/>
      <polygon class="st1" points="70.81 217.72 70.81 383.24 69.21 386.16 68.81 386.16 68.81 214.8 69.21 214.8 70.81 217.72"/>
      <polygon class="st1" points="70.81 214.8 70.81 217.72 69.21 214.8 70.81 214.8"/>
      <polygon class="st1" points="69.21 386.16 70.81 383.24 70.81 386.16 69.21 386.16"/>
      <polygon class="st1" points="70.69 387.64 71.5 386.16 162.99 386.16 163.68 387.42 163.68 388.16 68.81 388.16 68.81 386.16 69.21 386.16 68.93 386.68 70.69 387.64"/>
      <polygon class="st1" points="68.81 212.8 163.68 212.8 163.68 213.54 162.99 214.8 71.5 214.8 70.69 213.32 68.93 214.28 69.21 214.8 68.81 214.8 68.81 212.8"/>
      <polygon class="st1" points="53.3 212.8 68.81 212.8 68.81 214.8 51.3 214.8 51.3 188.52 272.41 188.52 272.41 214.8 260.55 214.8 260.55 212.8 270.41 212.8 270.41 190.52 53.3 190.52 53.3 212.8"/>
      <path class="st1" d="M22.53,386.16h46.28v2H20.53v-223.98c.36-.58.7-1.17,1.04-1.77h.96v223.75Z"/>
      <path class="st1" d="M20.53,162.41h1.04c-.34.6-.68,1.19-1.04,1.77v-1.77Z"/>
    </g>
    <g>
      <path class="st2" d="M1,160.12c.34-.15.64-.16.92-.09.61.13,1.13.6,1.72.82,5.03,1.86,9.97,3.98,15.06,5.94.68-.83,1.28-1.71,1.83-2.61.36-.58.7-1.17,1.04-1.77.37-.65.74-1.31,1.11-1.96,2.4-4.12,4.84-8.21,7.26-12.32,4.06-6.89,8.13-13.78,12.24-20.64,3.39-5.69,6.76-11.39,10.15-17.07,3-5.02,5.95-10.06,8.92-15.1,3.38-5.73,6.77-11.46,10.18-17.17.51-.86,1.06-1.69,1.47-2.63.9-2.1,3.01-2.79,4.79-3.83,5.61-3.29,11.29-6.47,16.93-9.69,4.9-2.81,9.82-5.57,14.73-8.35,4.23-2.39,8.41-4.85,12.64-7.25,4.34-2.47,8.71-4.89,13.04-7.38,4.92-2.83,9.87-5.62,14.79-8.47,4.62-2.68,9.31-5.23,13.91-7.95.38-.23.77-.36,1.18-.35.31.01.64.11.98.33,4.31,2.7,8.81,5.11,13.22,7.65,4.32,2.5,8.7,4.91,13.04,7.38,5.37,3.06,10.73,6.14,16.1,9.2,4.32,2.45,8.64,4.89,12.94,7.36,4.93,2.82,9.87,5.63,14.79,8.46,4.33,2.5,8.68,4.97,13.06,7.37,1.8.99,3.54,2.11,5.4,3,1.41.69,2.01,2.11,2.75,3.36,3.83,6.45,7.69,12.87,11.49,19.34,4.24,7.24,8.53,14.45,12.79,21.68,3.35,5.7,6.75,11.39,10.14,17.07,3,5.02,5.95,10.07,8.92,15.1,2.53,4.28,5.04,8.57,7.63,12.86.21.37.44.74.67,1.11.65,1.1,1.32,2.21,2,3.31,5.74-2.23,11.39-4.54,17.15-6.83-1.26-2.35-2.61-4.6-3.96-6.83-2.87-4.75-5.65-9.54-8.51-14.29-3.17-5.27-6.32-10.56-9.46-15.85-4.45-7.48-8.89-14.95-13.35-22.42-3.54-5.93-7.09-11.86-10.63-17.79-3.11-5.22-6.24-10.43-9.29-15.69-1.71-2.95-3.53-5.84-5.24-8.79-.5-.87-1.35-1.24-2.08-1.62-3.48-1.77-6.87-3.7-10.28-5.6-4.41-2.46-8.87-4.83-13.24-7.37-2.6-1.5-5.27-2.9-7.91-4.34-4.5-2.45-8.98-4.92-13.45-7.42-2.66-1.48-5.35-2.89-8.01-4.36-4.45-2.47-8.93-4.87-13.35-7.4-2.61-1.49-5.27-2.9-7.91-4.34-4.5-2.45-8.97-4.93-13.45-7.41-2.82-1.56-5.63-3.13-8.5-4.61-1.4-.72-2.68-1.66-4.2-2.15-.07-.03-.16,0-.24,0"/>
      <path class="st2" d="M164.68,1.6c-1.81.57-3.39,1.64-5.01,2.56-2.81,1.6-5.64,3.15-8.45,4.73-4.46,2.5-8.97,4.93-13.44,7.42-2.66,1.48-5.35,2.91-8.01,4.38-4.46,2.46-8.92,4.88-13.36,7.38-2.64,1.49-5.34,2.91-8,4.38-4.46,2.46-8.92,4.88-13.36,7.38-2.64,1.49-5.34,2.91-8,4.38-4.46,2.46-8.92,4.89-13.36,7.38-2.52,1.41-5.06,2.81-7.64,4.14-3.5,1.79-3.48,1.83-5.65,5.51-3.62,6.13-7.29,12.23-10.92,18.36-4.43,7.48-8.88,14.95-13.34,22.42-3.78,6.33-7.57,12.66-11.35,18.99-3.11,5.22-6.19,10.46-9.3,15.69-3.13,5.25-6.2,10.55-9.43,15.75-1.36,2.17-2.53,4.46-3.96,6.6-.13.19-.23.53-.14.83"/>
      <path class="st2" d="M164.8,1v19.8c0,.44-.04.89.12,1.32"/>
    </g>
  </g>
  <circle class="st3" cx="164.86" cy="59.58" r="17.79"/>
</svg>