<?xml version="1.0" encoding="UTF-8"?>
<svg id="Layer_1" xmlns="http://www.w3.org/2000/svg" version="1.1" viewBox="0 0 792 612">
  <!-- Generator: Adobe Illustrator 30.2.1, SVG Export Plug-In . SVG Version: 2.1.1 Build 1)  -->
  <defs>
    <style>
      .st0 {
        fill: #231f20;
      }

      .st0, .st1, .st2, .st3, .st4, .st5, .st6, .st7, .st8, .st9, .st10 {
        stroke: #231f20;
      }

      .st0, .st9 {
        stroke-miterlimit: 10;
        stroke-width: 2px;
      }

      .st1, .st2, .st3, .st4, .st11 {
        fill: none;
      }

      .st1, .st3, .st11, .st7, .st10 {
        stroke-width: 2px;
      }

      .st1, .st11 {
        stroke-linecap: round;
        stroke-linejoin: round;
      }

      .st2, .st3, .st7, .st10 {
        stroke-miterlimit: 10;
      }

      .st4 {
        stroke-miterlimit: 10;
        stroke-width: 2px;
      }

      .st11 {
        stroke: #000;
      }

      .st12, .st5, .st6, .st7, .st8, .st9 {
        fill: #fff;
      }

      .st5 {
        stroke-miterlimit: 10;
        stroke-width: 2px;
      }

      .st6 {
        stroke-miterlimit: 10;
        stroke-width: 2px;
      }

      .st8 {
        stroke-miterlimit: 10;
        stroke-width: 2px;
      }

      .st10 {
        fill: #8463ab;
      }
    </style>
  </defs>
  <g>
    <g>
      <path class="st12" d="M746.38,263.61v144.46h-31.06v-1.29h29.77v-143.91h.84c.14.24.29.49.44.73h0Z"/>
      <path class="st12" d="M746.38,262.88v.73c-.15-.24-.3-.49-.44-.73h.44Z"/>
      <path class="st12" d="M745.94,262.88h-.84v143.91h-29.77v-110.21h7.63v-16.9h-142.2v16.9h11.26v110.21h-29.77v-143.91h-.61c.24-.42.48-.84.71-1.25,1.54-2.66,3.11-5.29,4.67-7.93,2.61-4.43,5.23-8.86,7.87-13.27,2.19-3.65,4.35-7.33,6.53-10.98,1.92-3.23,3.83-6.47,5.74-9.71,2.17-3.69,4.35-7.36,6.55-11.04.33-.55.68-1.09.94-1.69.59-1.35,1.94-1.79,3.08-2.46,3.61-2.12,7.26-4.15,10.9-6.23,3.15-1.8,6.31-3.58,9.47-5.36,2.72-1.54,5.42-3.13,8.13-4.67,2.79-1.59,5.6-3.15,8.39-4.75,3.17-1.82,6.35-3.61,9.51-5.45,2.97-1.72,5.99-3.36,8.95-5.11.24-.15.5-.24.76-.23.2,0,.41.07.64.21,2.77,1.74,5.66,3.29,8.5,4.92,2.78,1.61,5.6,3.16,8.39,4.75,3.45,1.97,6.9,3.96,10.35,5.92,2.77,1.58,5.55,3.15,8.32,4.73,3.17,1.81,6.35,3.62,9.51,5.45,2.78,1.6,5.58,3.19,8.39,4.73,1.16.64,2.28,1.36,3.47,1.94.91.44,1.29,1.35,1.78,2.15,2.46,4.15,4.95,8.28,7.38,12.44,2.73,4.66,5.49,9.29,8.23,13.94,2.16,3.67,4.34,7.33,6.53,10.98,1.92,3.23,3.82,6.48,5.74,9.71,1.63,2.75,3.24,5.51,4.89,8.27h-.02ZM682.47,259.16v-47.41h-57.61v47.41h57.61ZM653.94,201.25c8.07-3.76,12.81-9.17,11.8-13.44-.42-1.78-2.1-3.89-4.47-4.47-2.68-.65-5.63.72-7.6,3.45-1.97-2.73-4.92-4.1-7.6-3.45-2.37.58-4.05,2.69-4.47,4.47-1.01,4.28,3.73,9.68,11.8,13.44l.28-.58.27.58h-.01Z"/>
      <polygon class="st12" points="722.95 279.67 722.95 296.57 715.32 296.57 715.32 295.29 721.67 295.29 721.67 280.96 582.04 280.96 582.04 295.29 592 295.29 592 296.57 580.75 296.57 580.75 279.67 722.95 279.67"/>
      <polygon class="st12" points="715.32 406.78 715.32 408.07 654.31 408.07 654.31 407.59 654.75 406.78 713.6 406.78 714.12 407.74 715.25 407.12 715.07 406.78 715.32 406.78"/>
      <polygon class="st12" points="715.32 296.57 715.32 406.78 715.07 406.78 714.04 404.91 714.04 298.45 715.07 296.57 715.32 296.57"/>
      <polygon class="st12" points="715.32 295.29 715.32 296.57 715.07 296.57 715.25 296.24 714.12 295.62 713.6 296.57 654.75 296.57 654.31 295.76 654.31 295.29 715.32 295.29"/>
      <polygon class="st12" points="715.25 296.24 715.07 296.57 714.04 296.57 713.6 296.57 714.12 295.62 715.25 296.24"/>
      <polygon class="st12" points="715.07 406.78 715.25 407.12 714.12 407.74 713.6 406.78 714.04 406.78 715.07 406.78"/>
      <polygon class="st12" points="715.07 296.57 714.04 298.45 714.04 296.57 715.07 296.57"/>
      <polygon class="st12" points="715.07 406.78 714.04 406.78 714.04 404.91 715.07 406.78"/>
      <polygon class="st12" points="714.04 404.91 714.04 406.78 713.6 406.78 684.18 353.02 684.91 351.68 714.04 404.91"/>
      <polygon class="st12" points="714.04 296.57 714.04 298.45 684.91 351.68 684.18 350.34 713.6 296.57 714.04 296.57"/>
      <polygon class="st12" points="684.91 351.68 684.18 353.02 683.44 351.68 684.18 350.34 684.91 351.68"/>
      <polygon class="st12" points="654.75 296.57 684.18 350.34 683.44 351.68 654.31 298.44 654.31 296.57 654.75 296.57"/>
      <polygon class="st12" points="683.44 351.68 684.18 353.02 654.75 406.78 654.31 406.78 654.31 404.92 683.44 351.68"/>
      <polygon class="st12" points="682.47 211.75 682.47 259.16 681.42 259.16 681.42 259.02 682.23 258.02 681.19 257.16 681.19 213.74 682.23 212.89 681.42 211.89 681.42 211.75 682.47 211.75"/>
      <polygon class="st12" points="681.42 211.89 682.23 212.89 681.19 213.74 681.19 213.04 680.03 213.04 681.42 211.89"/>
      <polygon class="st12" points="682.23 258.02 681.42 259.02 680.03 257.87 681.19 257.87 681.19 257.16 682.23 258.02"/>
      <polygon class="st12" points="681.42 259.02 681.42 259.16 625.91 259.16 625.91 259.02 627.31 257.87 680.03 257.87 681.42 259.02"/>
      <polygon class="st12" points="681.42 211.75 681.42 211.89 680.03 213.04 627.31 213.04 625.91 211.89 625.91 211.75 681.42 211.75"/>
      <polygon class="st12" points="681.19 257.16 681.19 257.87 680.03 257.87 653.67 236.29 654.68 235.46 681.19 257.16"/>
      <polygon class="st12" points="681.19 213.04 681.19 213.74 654.68 235.46 653.67 234.62 680.03 213.04 681.19 213.04"/>
      <path class="st12" d="M665.74,187.81c1.01,4.28-3.73,9.68-11.8,13.44l-.27-.58.27-.59c-.09-.05-.18-.08-.27-.13,7.11-3.39,11.63-8.35,10.81-11.85-.32-1.37-1.67-3.07-3.52-3.52-2.33-.57-5.11.95-6.74,3.7l-.55-.33.55-.33c-.17-.29-.35-.57-.55-.84,1.97-2.73,4.93-4.1,7.6-3.45,2.37.58,4.05,2.69,4.47,4.47h0Z"/>
      <path class="st12" d="M664.48,188.11c.82,3.51-3.7,8.46-10.81,11.85-7.11-3.39-11.65-8.35-10.82-11.85.32-1.37,1.67-3.07,3.52-3.52,2.34-.57,5.11.95,6.74,3.7l.55-.33.55.33c1.63-2.75,4.41-4.26,6.74-3.7,1.86.45,3.2,2.15,3.52,3.52h.01Z"/>
      <polygon class="st12" points="654.75 406.78 654.31 407.59 654.31 406.78 654.75 406.78"/>
      <polygon class="st12" points="654.31 295.76 654.75 296.57 654.31 296.57 654.31 295.76"/>
      <polygon class="st12" points="653.67 234.62 654.68 235.46 653.67 236.29 652.65 235.46 653.67 234.62"/>
      <polygon class="st12" points="654.31 407.59 654.31 408.07 653.02 408.07 653.02 407.58 653.1 407.74 653.67 407.43 654.23 407.74 654.31 407.59"/>
      <polygon class="st12" points="654.31 406.78 654.31 407.59 654.23 407.74 653.67 407.43 654.23 407.12 654.05 406.78 654.31 406.78"/>
      <polygon class="st12" points="654.31 404.92 654.31 406.78 654.05 406.78 653.67 406.09 654.31 404.92"/>
      <polygon class="st12" points="654.31 298.44 654.31 404.92 653.67 406.09 653.02 404.91 653.02 298.45 653.67 297.27 654.31 298.44"/>
      <polygon class="st12" points="654.31 296.57 654.31 298.44 653.67 297.27 654.05 296.57 654.31 296.57"/>
      <polygon class="st12" points="654.31 295.76 654.31 296.57 654.05 296.57 654.23 296.24 653.67 295.93 654.23 295.62 654.31 295.76"/>
      <polygon class="st12" points="654.31 295.29 654.31 295.76 654.23 295.62 653.67 295.93 653.1 295.62 653.02 295.77 653.02 295.29 654.31 295.29"/>
      <polygon class="st12" points="654.23 296.24 654.05 296.57 653.28 296.57 653.1 296.24 653.67 295.93 654.23 296.24"/>
      <polygon class="st12" points="654.05 406.78 654.23 407.12 653.67 407.43 653.1 407.12 653.28 406.78 654.05 406.78"/>
      <path class="st12" d="M654.22,187.63l-.55.33-.55-.33c.17-.29.35-.57.55-.84.2.26.38.55.55.84Z"/>
      <polygon class="st12" points="654.05 296.57 653.67 297.27 653.28 296.57 654.05 296.57"/>
      <polygon class="st12" points="654.05 406.78 653.28 406.78 653.67 406.09 654.05 406.78"/>
      <path class="st12" d="M653.94,200.09l-.27.59-.28-.59c.09-.05.19-.09.28-.13.09.05.18.08.27.13Z"/>
      <path class="st12" d="M653.67,199.96c-.09.04-.19.08-.28.13l.28.59-.28.58c-8.07-3.76-12.81-9.17-11.8-13.44.42-1.78,2.1-3.89,4.47-4.47,2.68-.65,5.63.72,7.6,3.45-.2.26-.38.55-.55.84l.55.33-.55.33c-1.63-2.75-4.4-4.26-6.74-3.7-1.85.45-3.2,2.15-3.52,3.52-.83,3.51,3.7,8.46,10.82,11.85h0Z"/>
      <polygon class="st12" points="653.67 234.62 652.65 235.46 626.15 213.74 626.15 213.04 627.31 213.04 653.67 234.62"/>
      <polygon class="st12" points="653.67 236.29 627.31 257.87 626.15 257.87 626.15 257.16 652.65 235.46 653.67 236.29"/>
      <polygon class="st12" points="653.67 295.93 653.1 296.24 653.28 296.57 653.02 296.57 653.02 295.77 653.1 295.62 653.67 295.93"/>
      <polygon class="st12" points="653.67 297.27 653.02 298.45 653.02 296.57 653.28 296.57 653.67 297.27"/>
      <polygon class="st12" points="653.67 406.09 653.28 406.78 653.02 406.78 653.02 404.91 653.67 406.09"/>
      <polygon class="st12" points="653.67 407.43 653.1 407.74 653.02 407.58 653.02 406.78 653.28 406.78 653.1 407.12 653.67 407.43"/>
      <polygon class="st12" points="653.02 404.91 653.02 406.78 652.58 406.78 623.16 353.02 623.89 351.68 653.02 404.91"/>
      <polygon class="st12" points="653.02 296.57 653.02 298.45 623.89 351.68 623.16 350.34 652.58 296.57 653.02 296.57"/>
      <polygon class="st12" points="653.02 407.58 653.02 408.07 592 408.07 592 406.78 592.27 406.78 592.09 407.12 593.21 407.74 593.73 406.78 652.58 406.78 653.02 407.58"/>
      <polygon class="st12" points="653.02 406.78 653.02 407.58 652.58 406.78 653.02 406.78"/>
      <polygon class="st12" points="653.02 295.77 653.02 296.57 652.58 296.57 653.02 295.77"/>
      <polygon class="st12" points="653.02 295.29 653.02 295.77 652.58 296.57 593.73 296.57 593.21 295.62 592.09 296.24 592.27 296.57 592 296.57 592 295.29 653.02 295.29"/>
      <polygon class="st12" points="625.91 211.89 627.31 213.04 626.15 213.04 626.15 213.74 625.1 212.89 625.91 211.89"/>
      <polygon class="st12" points="627.31 257.87 625.91 259.02 625.1 258.02 626.15 257.16 626.15 257.87 627.31 257.87"/>
      <polygon class="st12" points="626.15 213.74 626.15 257.16 625.1 258.02 625.91 259.02 625.91 259.16 624.86 259.16 624.86 211.75 625.91 211.75 625.91 211.89 625.1 212.89 626.15 213.74"/>
      <polygon class="st12" points="623.89 351.68 623.16 353.02 622.43 351.68 623.16 350.34 623.89 351.68"/>
      <polygon class="st12" points="593.73 296.57 623.16 350.34 622.43 351.68 593.29 298.44 593.29 296.57 593.73 296.57"/>
      <polygon class="st12" points="622.43 351.68 623.16 353.02 593.73 406.78 593.29 406.78 593.29 404.92 622.43 351.68"/>
      <polygon class="st12" points="593.73 406.78 593.21 407.74 592.09 407.12 592.27 406.78 593.29 406.78 593.73 406.78"/>
      <polygon class="st12" points="593.21 295.62 593.73 296.57 593.29 296.57 592.27 296.57 592.09 296.24 593.21 295.62"/>
      <polygon class="st12" points="593.29 404.92 593.29 406.78 592.27 406.78 593.29 404.92"/>
      <polygon class="st12" points="593.29 298.44 593.29 404.92 592.27 406.78 592 406.78 592 296.57 592.27 296.57 593.29 298.44"/>
      <polygon class="st12" points="593.29 296.57 593.29 298.44 592.27 296.57 593.29 296.57"/>
      <path class="st12" d="M592,406.78v1.29h-31.05v-144.04c.23-.38.46-.77.68-1.15h.61v143.91h29.77-.01Z"/>
      <path class="st12" d="M560.95,262.88h.68c-.22.39-.44.77-.68,1.15v-1.15Z"/>
    </g>
    <g>
      <polygon class="st2" points="681.42 211.75 682.47 211.75 682.47 259.16 681.42 259.16 625.91 259.16 624.86 259.16 624.86 211.75 625.91 211.75 681.42 211.75"/>
      <polygon class="st2" points="626.15 257.16 626.15 257.87 627.31 257.87 680.03 257.87 681.19 257.87 681.19 257.16 681.19 213.74 681.19 213.04 680.03 213.04 627.31 213.04 626.15 213.04 626.15 213.74 626.15 257.16"/>
      <polyline class="st2" points="714.04 406.78 715.07 406.78 715.32 406.78 745.1 406.78 745.1 262.88 745.94 262.88 746.38 262.88 746.38 263.61 746.38 408.07 715.32 408.07"/>
      <polyline class="st2" points="653.02 406.78 653.28 406.78 654.05 406.78 654.31 406.78"/>
      <polyline class="st2" points="592 408.07 560.95 408.07 560.95 264.03 560.95 262.88 561.63 262.88 562.24 262.88 562.24 406.78 592 406.78 592.27 406.78 593.29 406.78"/>
      <polyline class="st2" points="654.31 406.78 654.31 407.59 654.31 408.07"/>
      <polyline class="st2" points="654.31 295.29 654.31 295.76 654.31 296.57"/>
      <polyline class="st2" points="653.02 408.07 592 408.07 592 406.78 592 296.57 592 295.29"/>
      <polyline class="st2" points="593.29 296.57 593.29 298.44 593.29 404.92 593.29 406.78 593.73 406.78 652.58 406.78 653.02 406.78"/>
      <polyline class="st2" points="715.32 295.29 715.32 296.57 715.32 406.78 715.32 408.07 654.31 408.07 653.02 408.07 653.02 407.58 653.02 406.78 653.02 404.91 653.02 298.45 653.02 296.57 653.02 295.77 653.02 295.29"/>
      <polyline class="st2" points="654.31 296.57 654.31 298.44 654.31 404.92 654.31 406.78 654.75 406.78 713.6 406.78 714.04 406.78 714.04 404.91 714.04 298.45 714.04 296.57"/>
      <polygon class="st2" points="592 296.57 580.75 296.57 580.75 279.67 722.95 279.67 722.95 296.57 715.32 296.57 715.07 296.57 714.04 296.57 713.6 296.57 654.75 296.57 654.31 296.57 654.05 296.57 653.28 296.57 653.02 296.57 652.58 296.57 593.73 296.57 593.29 296.57 592.27 296.57 592 296.57"/>
      <polygon class="st2" points="715.32 295.29 721.67 295.29 721.67 280.96 582.04 280.96 582.04 295.29 592 295.29 653.02 295.29 654.31 295.29 715.32 295.29"/>
      <polygon class="st2" points="653.67 407.43 653.1 407.74 653.02 407.58 652.58 406.78 623.16 353.02 622.43 351.68 593.29 298.44 592.27 296.57 592.09 296.24 593.21 295.62 593.73 296.57 623.16 350.34 623.89 351.68 653.02 404.91 653.67 406.09 654.05 406.78 654.23 407.12 653.67 407.43"/>
      <polygon class="st2" points="593.73 406.78 593.21 407.74 592.09 407.12 592.27 406.78 593.29 404.92 622.43 351.68 623.16 350.34 652.58 296.57 653.02 295.77 653.1 295.62 653.67 295.93 654.23 296.24 654.05 296.57 653.67 297.27 653.02 298.45 623.89 351.68 623.16 353.02 593.73 406.78"/>
      <polygon class="st2" points="715.07 406.78 715.25 407.12 714.12 407.74 713.6 406.78 684.18 353.02 683.44 351.68 654.31 298.44 653.67 297.27 653.28 296.57 653.1 296.24 653.67 295.93 654.23 295.62 654.31 295.76 654.75 296.57 684.18 350.34 684.91 351.68 714.04 404.91 715.07 406.78"/>
      <polygon class="st2" points="654.31 407.59 654.23 407.74 653.67 407.43 653.1 407.12 653.28 406.78 653.67 406.09 654.31 404.92 683.44 351.68 684.18 350.34 713.6 296.57 714.12 295.62 715.25 296.24 715.07 296.57 714.04 298.45 684.91 351.68 684.18 353.02 654.75 406.78 654.31 407.59"/>
      <polygon class="st2" points="681.42 259.02 680.03 257.87 653.67 236.29 652.65 235.46 626.15 213.74 625.1 212.89 625.91 211.89 627.31 213.04 653.67 234.62 654.68 235.46 681.19 257.16 682.23 258.02 681.42 259.02"/>
      <polygon class="st2" points="625.91 259.02 625.1 258.02 626.15 257.16 652.65 235.46 653.67 234.62 680.03 213.04 681.42 211.89 682.23 212.89 681.19 213.74 654.68 235.46 653.67 236.29 627.31 257.87 625.91 259.02"/>
      <path class="st1" d="M548.39,261.4c.22-.09.41-.1.59-.06.4.08.73.39,1.11.53,3.24,1.2,6.41,2.57,9.69,3.82.43-.53.82-1.09,1.17-1.67.23-.38.46-.77.68-1.15.24-.42.48-.84.71-1.25,1.54-2.66,3.11-5.29,4.67-7.93,2.61-4.43,5.23-8.86,7.87-13.27,2.19-3.65,4.35-7.33,6.53-10.98,1.92-3.23,3.83-6.47,5.74-9.71,2.17-3.69,4.35-7.36,6.55-11.04.33-.55.68-1.09.94-1.69.59-1.35,1.94-1.79,3.08-2.46,3.61-2.12,7.26-4.15,10.9-6.23,3.15-1.8,6.31-3.58,9.47-5.36,2.72-1.54,5.42-3.13,8.13-4.67,2.79-1.59,5.6-3.15,8.39-4.75,3.17-1.82,6.35-3.61,9.51-5.45,2.97-1.72,5.99-3.36,8.95-5.11.24-.15.5-.24.76-.23.2,0,.41.07.64.21,2.77,1.74,5.66,3.29,8.5,4.92,2.78,1.61,5.6,3.16,8.39,4.75,3.45,1.97,6.9,3.96,10.35,5.92,2.77,1.58,5.55,3.15,8.32,4.73,3.17,1.81,6.35,3.62,9.51,5.45,2.78,1.6,5.58,3.19,8.39,4.73,1.16.64,2.28,1.36,3.47,1.94.91.44,1.29,1.35,1.78,2.15,2.46,4.15,4.95,8.28,7.38,12.44,2.73,4.66,5.49,9.29,8.23,13.94,2.16,3.67,4.34,7.33,6.53,10.98,1.92,3.23,3.82,6.48,5.74,9.71,1.63,2.75,3.24,5.51,4.89,8.27.14.24.29.49.44.73.42.71.85,1.41,1.28,2.12,3.69-1.44,7.33-2.93,11.04-4.4-.81-1.51-1.68-2.96-2.55-4.39-1.84-3.05-3.63-6.14-5.47-9.19-2.04-3.39-4.06-6.79-6.08-10.19-2.86-4.8-5.72-9.62-8.59-14.42-2.28-3.81-4.56-7.63-6.83-11.44-2-3.36-4.02-6.71-5.98-10.09-1.1-1.9-2.27-3.76-3.36-5.65-.32-.55-.87-.8-1.34-1.04-2.24-1.14-4.42-2.38-6.61-3.6-2.84-1.58-5.7-3.11-8.52-4.73-1.67-.97-3.38-1.87-5.08-2.8-2.89-1.58-5.78-3.16-8.66-4.77-1.7-.95-3.44-1.86-5.15-2.8-2.86-1.59-5.74-3.13-8.59-4.76-1.67-.96-3.38-1.87-5.08-2.79-2.89-1.58-5.78-3.17-8.66-4.77-1.81-1-3.62-2.01-5.46-2.96-.9-.46-1.73-1.07-2.71-1.38-.05,0-.1,0-.15,0"/>
      <path class="st1" d="M653.66,159.45c-1.16.37-2.18,1.06-3.22,1.65-1.8,1.02-3.62,2.02-5.43,3.04-2.87,1.61-5.77,3.18-8.65,4.77-1.7.95-3.44,1.87-5.15,2.82-2.86,1.58-5.74,3.15-8.59,4.75-1.7.96-3.44,1.87-5.15,2.82-2.86,1.58-5.74,3.15-8.59,4.75-1.7.96-3.44,1.87-5.15,2.82-2.86,1.58-5.74,3.15-8.59,4.75-1.62.91-3.26,1.81-4.92,2.66-2.24,1.15-2.23,1.18-3.63,3.54-2.33,3.94-4.7,7.87-7.02,11.81-2.85,4.81-5.72,9.62-8.59,14.42-2.43,4.08-4.87,8.14-7.29,12.22-2.01,3.35-3.99,6.73-5.99,10.08-2.01,3.38-3.99,6.79-6.07,10.13-.87,1.4-1.62,2.87-2.55,4.24-.08.12-.15.34-.09.53"/>
      <path class="st11" d="M653.74,159.06v12.73c0,.28-.03.57.07.85"/>
    </g>
  </g>
  <g>
    <path class="st3" d="M219.51,260.03c-1.14-1.2-3.06-2.02-4.14-3-6.65-6.03-8.13-8.2-10.85-12.47-2.22-3.48,1-8,1-12-6,0-10.32,7.91-10,13,.3,4.76,5.21,10.45,7,18-3,4-8,6-9,11-1,1-3.98.5-4.98-.5-9-10-24.02-10.5-34.02-2.5-1,1,0,4,1,5,5,5,11.58,5.13,18.58,4.13,4-1,8.47,0,12.42.87,2,0,5,1,4,2-3,14-4,29-13.67,38.56"/>
    <path class="st3" d="M496.73,405.06"/>
    <path class="st3" d="M474.12,480.6c-3.22-15.83,6.02-30.38,9.61-46.54,1.99-12.95-4.95-21.94-7.97-33.87l-.3-7.7c1.89-10.68,6.17-18.96,8.27-29.43,2-16-5-30-14-42,16.64,12.96,25.74,20.78,35.9,53.43,2.21,7.09.46,25.4-8.17,33.29"/>
    <path class="st3" d="M474.12,479.13"/>
    <path class="st3" d="M455.9,477.89c-.64.99-1.33,1.97-2.04,2.94"/>
    <path class="st3" d="M326.98,401.39c.75,5.2-1.25,10.2-.25,16.2,1,3,4,5,7,5,13,0,28.78,1.15,41.78-.85,6,0,9.22-3.15,15.22-4.15,9-2,15-6,23-10,7-3,13.63-2.31,19,4.41,13.84,17.31,30.05,34.28,27,56.59-.47,3.45-1.96,6.44-3.83,9.31"/>
    <path class="st3" d="M306.4,488.1c2.72-4.38,5.85-8.51,10.11-11.54,8.07-5.74,2-18,3-27,2-10,5-18,7-28"/>
    <path class="st3" d="M281.78,406.55c.74,18.02,4.58,33.47,14.74,50.02,5.59,9.11,1.86,17.74-4.31,25.17"/>
    <path class="st3" d="M232.05,355.71c1.47-.14,2.47-.14,2.47.86-1,16,1,32,11,45,10,11,23.06,23.92,38.06,22.92"/>
    <path class="st3" d="M230.16,358.73"/>
    <path class="st3" d="M255.06,409.06"/>
    <path class="st3" d="M253.09,409.78c-2.58,1.78-1.52,5.08-1.28,8.11,1.46,18.38,9.7,34.68,2.7,51.68-4,7-10,13-14,20,4,10,18,5,26,2,3-2,6-6,5-10-1-2-3-4-3-7,6-16,22-34,8.12-50.03"/>
    <path class="st7" d="M290.94,378.68c-4.61-10.04-21.07-35.41-14.71-41.51,8.22-7.87,41.6-6.47,50.28-4.09,11.93,3.27,11.84,22.89,26.18,27.68,9.84,3.29,15.61,1.1,19.26,6.07,3.23,4.38,2.53,11.26,0,15.81-5.57,10.03-22.39,13.04-33.99,9.04-7.52-2.6-14.83,3.05-21.51,2.96-8.05-.11-4.22-3.96-11.35-4.66-6.5-.63-11.84-6.23-14.16-11.29h0Z"/>
    <path class="st7" d="M450.39,295.25"/>
    <path class="st7" d="M432.97,296.64"/>
    <path class="st7" d="M425.06,290.84c1.81,15.66-16.51,22.54-12.45,35.46,5.72,18.15,30.41,29.85,34.43,32.48,11.44,7.47,23.47,1.28,27.07-7.67,2.33-5.79-19.48-50.1-23.78-54.46"/>
    <path class="st7" d="M253.56,351.37l3.81.98c3.69.95,6.27,4.27,6.27,8.08v14.96l9.61,8.26c4.65,3.99,7.07,9.98,6.49,16.06l-.53,5.64-.81.91c-4.41,5-11.56,6.56-17.66,3.85l-1.3-.58c-7.43-3.3-13.82-8.53-18.52-15.14l-.93-1.31-4.37-11.58c-1.48-3.92-1.18-8.29.82-11.97l7.63-14.07c1.83-3.38,5.74-5.07,9.47-4.11l.02.02Z"/>
    <path class="st3" d="M251.26,334.44c1.14,11.49-9.33,20.19-30.34,24.02-2.92.53-6.07.69-9.39.81-21.93.84-39.73-11.12-39.73-24.83s17.79-24.83,39.73-24.83,38.38,11.19,39.73,24.83Z"/>
    <ellipse class="st4" cx="193.52" cy="329.19" rx="2.82" ry="8.85" transform="translate(-161.55 188.68) rotate(-37.96)"/>
    <ellipse class="st4" cx="231.15" cy="331.81" rx="8.85" ry="2.82" transform="translate(-172.64 309.95) rotate(-52.04)"/>
    <path class="st3" d="M197.67,344c2.32,4.31,6.8,7.04,11.67,7.11,5.01.07,9.66-2.68,12.05-7.11"/>
    <path class="st3" d="M202.94,263.43c.05.4-.92-5.04,18.45-2.9,4.54.5,11.83,2.01,13.84,2.24,6.98.79,15.21,2.13,20.89,2.4,4.27.2,5.26.9,8.89,2.4,2.8,1.15,3.29,2.14,5.22,3.67,3.46,2.75,3.13,5.9,4.09,8.19,1.25,2.94.9,5.16,1.55,9.74.68,4.71.18,11.18.14,13.27-.1,5.84-.96,6.7-3.39,12.42-1.5,3.53-2.43,5.66-4.24,8.47-1.43,2.22-3.78,5.8-8.05,9.18-1.84,1.46-5.36,3.17-9.09,4.66"/>
    <path class="st3" d="M222.8,262.77"/>
    <line class="st3" x1="193.55" y1="275.34" x2="190.51" y2="283.57"/>
    <path class="st3" d="M204.83,283.57c.26-.54,2.22-4.34,6.75-5.45,4.14-1.01,7.38.98,7.93,1.34"/>
    <path class="st3" d="M241.15,286.4c2.88-2.8,7.21-3.2,10.19-1.13,2.38,1.65,3.61,4.66,3.17,7.72"/>
    <path class="st3" d="M214.8,292.99c-.94.19-4.24.75-7.53-1.13-1.89-1.08-3.01-2.52-3.58-3.38"/>
    <path class="st3" d="M209.25,290.84c.71-2.53,2.94-3.74,4.24-3.32,1.36.44,2.49,2.91,1.32,5.46"/>
    <path class="st3" d="M245.86,297.61c-.32-3.52-1.04-4.48-1.69-4.63-1.29-.29-5.46,1.88-5.46,1.88h0s5.41,3.73,5.88,4.06c.19.13.6.41,1.08.65,2.53,1.27,5.32.71,7.34,0"/>
    <path class="st3" d="M196.73,296.64"/>
    <path class="st10" d="M187.64,293.8"/>
    <path class="st10" d="M198.87,310.65"/>
    <path class="st3" d="M207.62,294.36c-1.86,2.83-2.39,6.07-1.26,8.25.15.29.99,1.9,2.52,2.19,1.33.25,2.4-.65,3.13-1.26,1.84-1.54,2.48-3.72,2.7-4.5.77-2.74.27-5.12,0-6.12"/>
    <path class="st3" d="M238.48,295.25c-1.34,2.96-2.54,5.28-3.42,6.91-1.18,2.19-1.9,3.35-1.59,4.85.27,1.28,1.23,2.54,2.51,3.01.29.11.99.32,2.51,0,1.43-.31,3.71-.79,5.48-3.01,1.97-2.47,1.92-5.33,1.89-6.03"/>
    <ellipse class="st0" cx="211.58" cy="299.23" rx="4.32" ry="2.31" transform="translate(-151.63 348.1) rotate(-62.4)"/>
    <ellipse class="st0" cx="241.15" cy="305.47" rx="4.32" ry="2.31" transform="translate(-141.28 377.66) rotate(-62.4)"/>
    <line class="st3" x1="268.51" y1="474.57" x2="254.51" y2="469.57"/>
    <line class="st3" x1="244.78" y1="494.03" x2="252.19" y2="484.33"/>
    <path class="st3" d="M212.29,414.49"/>
    <g>
      <path class="st3" d="M292.98,482.14c-3.68,7.37-15.01,11.93-13.45,22,7.69,7.34,20.81,4.91,28.1-1.77,3.17-3.87,1.85-10.28-1.32-14.51"/>
      <line class="st3" x1="306.73" y1="488.3" x2="292.96" y2="482.69"/>
      <line class="st3" x1="282.73" y1="506.05" x2="291.28" y2="496.65"/>
    </g>
    <g>
      <path class="st3" d="M408.8,435.39c2.62,13.31,3.98,18.05-1.33,30.94-4,7-10,13-14,20,4,10,18,5,26,2,3-2,6-6,5-10-1-2-4.02-4.18-3-7,6.23-17.16,23.75-37.12,9.54-51.55"/>
      <path class="st3" d="M407.47,431.06"/>
      <line class="st3" x1="421.47" y1="471.34" x2="407.47" y2="466.34"/>
      <line class="st3" x1="397.73" y1="490.81" x2="405.15" y2="481.1"/>
    </g>
    <path class="st3" d="M379.9,421.46c2.09,2.12,4.11,3.29,5.65,3.98,4.73,2.11,6.84.76,9.93,2.26,6.4,3.1,5.68,13.23,8.7,13.37,2.99.14,4.4-9.74,7.91-9.8,3.58-.06,5.8,10.17,7.91,9.8,2.15-.37-.38-10.94,5.08-17.32,3.41-3.99,8.78-5,12.58-5.25"/>
    <path class="st3" d="M391.91,427.11c-1.73,4.12.19,12.61,2.56,13.26,1.66.46,3.9-4.67,5.36-6.49"/>
    <path class="st3" d="M408.8,435.39c-.17,1.82,1.09,6.59,2.47,7.1,1.8.65,4.64-4.34,5.17-6.82"/>
    <g>
      <path class="st3" d="M456.37,477.58c-3.68,7.37-15.01,11.93-13.45,22,7.69,7.34,20.81,4.91,28.1-1.77,3.17-3.87,1.85-10.28-1.32-14.51"/>
      <line class="st3" x1="470.11" y1="483.15" x2="456.35" y2="477.54"/>
      <line class="st3" x1="446.12" y1="501.48" x2="454.67" y2="492.09"/>
    </g>
    <path class="st3" d="M469.87,482.54l4.25-3.41"/>
    <path class="st3" d="M506.48,432.56c.71,2.69,2.22,4.52,4.45,5.64.69.35,1.53-.16,1.58-.94.33-5.19-2.03-9.72-2.17-15,0-.31.12-.61.34-.83.5-.49,1.17-1.11,1.91-1.62.89-.61.49-2.02-.59-2.03-.89-.01-1.78-.11-2.67-1-1.97-1.97-1.02-5.9-1-7.92,0-.05,0-.1.02-.16,6.18-33.33,1.71-57.96-9.93-76.13-16.75-26.15-47.31-36.13-61.78-40.09-53.27-14.6-149.9-6.55-157.31-9.69-4.18-1.77-4.56-4.11-4.56-4.11-.45-.49-.39-1.27.16-1.65,5.72-3.9,34.24-7.74,30.77-11.18-8.16-6.57-20.62-7.96-28.49-.96-1.9,1.72-8.76,3.02-11.38,1.31-.31-.2-.49-.56-.49-.93v-1.04c0-.29.11-.56.31-.76,7.76-8,10.58-19.79,2.69-27.68-2-1-3,2-3,3-1,8-8.58,17.18-13.71,24.5-1.07,1.52,1.41-2.51.37-1.11"/>
    <path class="st3" d="M497.45,407.78l-3.66,3.52c-.72.69-.23,1.91.77,1.91h1.5c.71,0,1.24.66,1.08,1.35l-2.04,9.12c-.2.89.7,1.63,1.53,1.26l1.85-.82c.83-.36,1.72.36,1.53,1.24l-1.48,7.12c-.16.77.52,1.46,1.29,1.32"/>
    <line class="st3" x1="499.83" y1="433.8" x2="506.49" y2="432.98"/>
    <path class="st7" d="M460.83,396.05c3.62-6.76-.79-14.52-5.78-18.63-6.45-5.3-15.9-6.16-22.71-4.56-9.37,2.2-8.73,7.9-19.98,11.12-7.72,2.21-12.25.74-15.12,4.09-2.53,2.95-1.99,7.58,0,10.64,4.37,6.75,17.57,8.78,26.68,6.08,5.91-1.75,5.22,6.71,10.46,6.65,6.32-.07,9.73-7.33,15.33-7.79,5.1-.43,9.29-4.2,11.12-7.6h0Z"/>
    <path class="st7" d="M366.94,333.76c9.48-5.85,14.02-17.89,14.44-25.91.55-10.36-5.58-17.27-12.24-19.58-9.15-3.18-14.4,4.03-25.98.9-7.94-2.15-9.82-6.73-15.31-4.5-4.84,1.96-9.09,7.84-10.7,12.75-3.55,10.81,4.19,21.44,13.65,23.87,6.13,1.58,9.53-1.19,13.48,2,4.75,3.84,2.16,9.75,6.77,12.67,4.21,2.66,11.1.75,15.88-2.2h.01Z"/>
    <path class="st7" d="M241.39,281.36c2.09-.89,2.63-3.48,2.33-5.33-.38-2.39-2.26-4.31-4.05-5.18-2.46-1.2-3.41.22-6.48-1.08-2.1-.9-2.8-2.06-4.07-1.81-1.12.22-1.89,1.38-2.05,2.44-.35,2.35,2.12,5.21,4.61,6.25,1.62.67,2.33.2,3.48,1.14,1.38,1.13,1.03,2.38,2.33,3.29,1.19.83,2.82.73,3.88.28h.02Z"/>
    <path class="st1" d="M470.11,333.08"/>
  </g>
  <ellipse class="st7" cx="122.33" cy="103.05" rx="44.05" ry="37.69"/>
  <rect class="st7" x="179.88" y="91.61" width="51.77" height="22.87"/>
  <rect class="st7" x="13.95" y="91.61" width="51.77" height="22.87"/>
  <rect class="st9" x="52.4" y="161.21" width="51.77" height="22.87" transform="translate(-110.98 162.03) rotate(-62.4)"/>
  <rect class="st5" x="154.95" y="146.76" width="22.87" height="51.77" transform="translate(-60.31 94.55) rotate(-27.05)"/>
  <path class="st7" d="M0,405.06"/>
  <path class="st7" d="M0,394.63c35.15-11.3,153.19-27.97,236.46-25.08"/>
  <line class="st3" x1="509.61" y1="362.12" x2="560.95" y2="362.12"/>
  <line class="st3" x1="484.7" y1="362.12" x2="500.83" y2="362.12"/>
  <path class="st3" d="M788.89,358.18"/>
  <line class="st3" x1="792" y1="361.88" x2="746.38" y2="362.36"/>
  <rect class="st6" x="145.91" y="30.22" width="51.77" height="22.87" transform="translate(25.35 140.66) rotate(-47.69)"/>
  <rect class="st8" x="73.16" y="7.68" width="22.87" height="51.77" transform="translate(-5.45 46.8) rotate(-30)"/>
  <g>
    <path class="st7" d="M397.12,69.17c0-15.19,12.32-27.51,27.51-27.51s27.51,12.32,27.51,27.51"/>
    <path class="st7" d="M452.04,68.5c17.9,2.73,30.22,19.22,27.54,36.83s-19.37,29.67-37.27,26.93"/>
    <path class="st7" d="M452.15,112.45c0,21.01-17.03,38.04-38.04,38.04s-38.04-17.03-38.04-38.04"/>
    <path class="st7" d="M338.78,92.17c-5-18.71,6.11-37.94,24.83-42.94,18.71-5,37.94,6.11,42.94,24.83"/>
    <path class="st7" d="M401.36,125.97c0,16.18-13.12,29.29-29.29,29.29s-29.29-13.12-29.29-29.29"/>
    <path class="st7" d="M342.89,130.26c-14.51,0-26.28-11.77-26.28-26.28s11.77-26.28,26.28-26.28"/>
    <ellipse class="st12" cx="401.3" cy="104.89" rx="69.23" ry="35.73"/>
  </g>
  <g>
    <path class="st7" d="M512.16,120.65c0-11.51,9.81-20.85,21.92-20.85s21.92,9.33,21.92,20.85"/>
    <path class="st7" d="M555.9,120.14c14.26,2.07,24.08,14.57,21.93,27.91-2.14,13.34-15.43,22.48-29.69,20.41"/>
    <path class="st7" d="M555.99,153.45c0,15.92-13.57,28.83-30.3,28.83s-30.3-12.91-30.3-28.83"/>
    <path class="st7" d="M465.68,138.08c-3.98-14.18,4.87-28.75,19.78-32.54s30.22,4.63,34.21,18.82"/>
    <path class="st7" d="M515.53,163.7c0,12.26-10.45,22.2-23.34,22.2s-23.34-9.94-23.34-22.2"/>
    <path class="st7" d="M468.96,166.94c-11.56,0-20.93-8.92-20.93-19.91s9.37-19.91,20.93-19.91"/>
    <ellipse class="st12" cx="515.49" cy="147.72" rx="55.15" ry="27.08"/>
  </g>
  <g>
    <path class="st7" d="M755.23,43.73c0-8.48,7.65-15.35,17.08-15.35s17.08,6.87,17.08,15.35"/>
    <path class="st7" d="M789.32,43.36c11.11,1.52,18.76,10.73,17.09,20.55-1.67,9.83-12.03,16.55-23.13,15.03"/>
    <path class="st7" d="M789.39,67.88c0,11.72-10.57,21.23-23.61,21.23s-23.61-9.5-23.61-21.23"/>
    <path class="st7" d="M719.02,56.57c-3.11-10.44,3.79-21.17,15.41-23.96s23.55,3.41,26.66,13.85"/>
    <path class="st7" d="M757.86,75.43c0,9.03-8.14,16.35-18.18,16.35s-18.18-7.32-18.18-16.35"/>
    <path class="st7" d="M721.57,77.82c-9.01,0-16.31-6.57-16.31-14.66s7.3-14.66,16.31-14.66"/>
    <ellipse class="st12" cx="757.82" cy="63.67" rx="42.97" ry="19.94"/>
  </g>
</svg>