<svg width="26" height="25" viewBox="0 0 26 25" fill="none" xmlns="http://www.w3.org/2000/svg">
<path fill-rule="evenodd" clip-rule="evenodd" d="M22.4545 0C24.4119 0 26 1.527 26 3.40917V21.5908C26 23.473 24.4119 25 22.4545 25H3.54553C1.58808 25 0 23.473 0 21.5908V3.40917C0 1.527 1.58808 0 3.54553 0H22.4545ZM22.4545 2.27332C23.1064 2.27332 23.6357 2.78232 23.6357 3.40917V21.5908C23.6357 22.2177 23.1064 22.7267 22.4545 22.7267H16.5447V14.7725H18.9991C19.5081 14.7725 19.9591 14.4599 20.1208 13.9951L20.6451 12.4845C20.8357 11.9329 20.4085 11.3633 19.8043 11.3633H16.5464V9.09002C16.5464 8.52209 17.137 7.95417 17.7277 7.95417H20.0919C20.7438 7.95417 21.2732 7.44517 21.2732 6.81833V6.03928C21.2732 5.67267 21.0298 5.3437 20.6604 5.24877C19.1115 4.85597 17.7277 4.85597 17.7277 4.85597C14.7728 4.85597 13.0008 6.81833 13.0008 8.52373V11.365H10.6366C9.98468 11.365 9.45532 11.874 9.45532 12.5008V13.6367C9.45532 14.2635 9.98468 14.7725 10.6366 14.7725H13.0008V22.7267H3.54553C2.89361 22.7267 2.36425 22.2177 2.36425 21.5908V3.40917C2.36425 2.78232 2.89361 2.27332 3.54553 2.27332H22.4545Z" fill="black"/>
</svg>
