<?xml version="1.0" encoding="UTF-8"?>
<svg id="Layer_1" xmlns="http://www.w3.org/2000/svg" version="1.1" viewBox="0 0 360.98 278.07">
  <!-- Generator: Adobe Illustrator 30.2.1, SVG Export Plug-In . SVG Version: 2.1.1 Build 1)  -->
  <defs>
    <style>
      .st0 {
        fill: #231f20;
        stroke-miterlimit: 10;
        stroke-width: 2px;
      }

      .st0, .st1, .st2, .st3, .st4, .st5, .st6 {
        stroke: #231f20;
      }

      .st1 {
        stroke-linecap: round;
        stroke-linejoin: round;
      }

      .st1, .st2, .st3 {
        fill: none;
      }

      .st1, .st2, .st4, .st5, .st6 {
        stroke-width: 2px;
      }

      .st2, .st4, .st5, .st6 {
        stroke-miterlimit: 10;
      }

      .st3 {
        stroke-miterlimit: 10;
        stroke-width: 2px;
      }

      .st4 {
        fill: #dc9227;
      }

      .st5 {
        fill: #fff;
      }

      .st6 {
        fill: #8463ab;
      }
    </style>
  </defs>
  <g id="Layer_11" data-name="Layer_1">
    <path class="st2" d="M66.41,28.47c-1.14-1.2-3.06-2.02-4.14-3-6.65-6.03-8.13-8.2-10.85-12.47-2.22-3.48,1-8,1-12-6,0-10.32,7.91-10,13,.3,4.76,5.21,10.45,7,18-3,4-8,6-9,11-1,1-3.98.5-4.98-.5-9-10-24.02-10.5-34.02-2.5-1,1,0,4,1,5,5,5,11.58,5.13,18.58,4.13,4-1,8.47,0,12.42.87,2,0,5,1,4,2-3,14-4,29-13.67,38.56"/>
    <path class="st2" d="M343.63,173.49"/>
    <path class="st2" d="M321.02,249.04c-3.22-15.83,6.02-30.38,9.61-46.54,1.99-12.95-4.95-21.94-7.97-33.87l-.3-7.7c1.89-10.68,6.17-18.96,8.27-29.43,2-16-5-30-14-42,16.64,12.96,25.74,20.78,35.9,53.43,2.21,7.09.46,25.4-8.17,33.29"/>
    <path class="st2" d="M321.02,247.56"/>
    <path class="st2" d="M302.8,246.32c-.64.99-1.33,1.97-2.04,2.94"/>
    <path class="st2" d="M173.88,169.82c.75,5.2-1.25,10.2-.25,16.2,1,3,4,5,7,5,13,0,28.78,1.15,41.78-.85,6,0,9.22-3.15,15.22-4.15,9-2,15-6,23-10,7-3,13.63-2.31,19,4.41,13.84,17.31,30.05,34.28,27,56.59-.47,3.45-1.96,6.44-3.83,9.31"/>
    <path class="st2" d="M153.3,256.54c2.72-4.38,5.85-8.51,10.11-11.54,8.07-5.74,2-18,3-27,2-10,5-18,7-28"/>
    <path class="st2" d="M128.68,174.98c.74,18.02,4.58,33.47,14.74,50.02,5.59,9.11,1.86,17.74-4.31,25.17"/>
    <path class="st2" d="M78.95,124.14c1.47-.14,2.47-.14,2.47.86-1,16,1,32,11,45,10,11,23.06,23.92,38.06,22.92"/>
    <path class="st2" d="M77.06,127.16"/>
    <path class="st2" d="M101.96,177.5"/>
    <path class="st2" d="M99.99,178.22c-2.58,1.78-1.52,5.08-1.28,8.11,1.46,18.38,9.7,34.68,2.7,51.68-4,7-10,13-14,20,4,10,18,5,26,2,3-2,6-6,5-10-1-2-3-4-3-7,6-16,22-34,8.12-50.03"/>
    <path class="st6" d="M137.85,147.12c-4.61-10.04-21.07-35.41-14.71-41.51,8.22-7.87,41.6-6.47,50.28-4.09,11.93,3.27,11.84,22.89,26.18,27.68,9.84,3.29,15.61,1.1,19.26,6.07,3.23,4.38,2.53,11.26,0,15.81-5.57,10.03-22.39,13.04-33.99,9.04-7.52-2.6-14.83,3.05-21.51,2.96-8.05-.11-4.22-3.96-11.35-4.66-6.5-.63-11.84-6.23-14.16-11.29h0Z"/>
    <path class="st6" d="M297.29,63.68"/>
    <path class="st6" d="M279.87,65.08"/>
    <path class="st6" d="M271.96,59.28c1.81,15.66-16.51,22.54-12.45,35.46,5.72,18.15,30.41,29.85,34.43,32.48,11.44,7.47,23.47,1.28,27.07-7.67,2.33-5.79-19.48-50.1-23.78-54.46"/>
    <path class="st6" d="M100.47,119.81l3.81.98c3.69.95,6.27,4.27,6.27,8.08v14.96l9.61,8.26c4.65,3.99,7.07,9.98,6.49,16.06l-.53,5.64-.81.91c-4.41,5-11.56,6.56-17.66,3.85l-1.3-.58c-7.43-3.3-13.82-8.53-18.52-15.14l-.93-1.31-4.37-11.58c-1.48-3.92-1.18-8.29.82-11.97l7.63-14.07c1.83-3.38,5.74-5.07,9.47-4.11l.02.02Z"/>
    <path class="st2" d="M98.16,102.87c1.14,11.49-9.33,20.19-30.34,24.02-2.92.53-6.07.69-9.39.81-21.93.84-39.73-11.12-39.73-24.83s17.79-24.83,39.73-24.83,38.38,11.19,39.73,24.83Z"/>
    <ellipse class="st3" cx="40.42" cy="97.62" rx="2.82" ry="8.85" transform="translate(-51.5 45.52) rotate(-37.96)"/>
    <ellipse class="st3" cx="78.05" cy="100.24" rx="8.85" ry="2.82" transform="translate(-48.99 100.12) rotate(-52.04)"/>
    <path class="st2" d="M44.57,112.43c2.32,4.31,6.8,7.04,11.67,7.11,5.01.07,9.66-2.68,12.05-7.11"/>
    <path class="st2" d="M49.85,31.87c.05.4-.92-5.04,18.45-2.9,4.54.5,11.83,2.01,13.84,2.24,6.98.79,15.21,2.13,20.89,2.4,4.27.2,5.26.9,8.89,2.4,2.8,1.15,3.29,2.14,5.22,3.67,3.46,2.75,3.13,5.9,4.09,8.19,1.25,2.94.9,5.16,1.55,9.74.68,4.71.18,11.18.14,13.27-.1,5.84-.96,6.7-3.39,12.42-1.5,3.53-2.43,5.66-4.24,8.47-1.43,2.22-3.78,5.8-8.05,9.18-1.84,1.46-5.36,3.17-9.09,4.66"/>
    <path class="st2" d="M69.7,31.21"/>
    <line class="st2" x1="40.45" y1="43.77" x2="37.41" y2="52"/>
    <path class="st2" d="M51.73,52c.26-.54,2.22-4.34,6.75-5.45,4.14-1.01,7.38.98,7.93,1.34"/>
    <path class="st2" d="M88.06,54.83c2.88-2.8,7.21-3.2,10.19-1.13,2.38,1.65,3.61,4.66,3.17,7.72"/>
    <path class="st2" d="M61.7,61.42c-.94.19-4.24.75-7.53-1.13-1.89-1.08-3.01-2.52-3.58-3.38"/>
    <path class="st2" d="M56.15,59.28c.71-2.53,2.94-3.74,4.24-3.32,1.36.44,2.49,2.91,1.32,5.46"/>
    <path class="st2" d="M92.76,66.05c-.32-3.52-1.04-4.48-1.69-4.63-1.29-.29-5.46,1.88-5.46,1.88h0s5.41,3.73,5.88,4.06c.19.13.6.41,1.08.65,2.53,1.27,5.32.71,7.34,0"/>
    <path class="st2" d="M43.63,65.08"/>
    <path class="st6" d="M34.54,62.23"/>
    <path class="st6" d="M45.77,79.09"/>
    <path class="st2" d="M54.52,62.79c-1.86,2.83-2.39,6.07-1.26,8.25.15.29.99,1.9,2.52,2.19,1.33.25,2.4-.65,3.13-1.26,1.84-1.54,2.48-3.72,2.7-4.5.77-2.74.27-5.12,0-6.12"/>
    <path class="st2" d="M85.38,63.68c-1.34,2.96-2.54,5.28-3.42,6.91-1.18,2.19-1.9,3.35-1.59,4.85.27,1.28,1.23,2.54,2.51,3.01.29.11.99.32,2.51,0,1.43-.31,3.71-.79,5.48-3.01,1.97-2.47,1.92-5.33,1.89-6.03"/>
    <ellipse class="st0" cx="58.47" cy="67.66" rx="4.32" ry="2.31" transform="translate(-28.58 88.13) rotate(-62.4)"/>
    <ellipse class="st0" cx="88.06" cy="73.89" rx="4.32" ry="2.31" transform="translate(-18.22 117.7) rotate(-62.4)"/>
    <line class="st2" x1="115.41" y1="243" x2="101.41" y2="238"/>
    <line class="st2" x1="91.68" y1="262.47" x2="99.1" y2="252.76"/>
    <path class="st2" d="M59.2,182.93"/>
    <g>
      <path class="st2" d="M139.89,250.58c-3.68,7.37-15.01,11.93-13.45,22,7.69,7.34,20.81,4.91,28.1-1.77,3.17-3.87,1.85-10.28-1.32-14.51"/>
      <line class="st2" x1="153.63" y1="256.73" x2="139.86" y2="251.13"/>
      <line class="st2" x1="129.63" y1="274.48" x2="138.18" y2="265.09"/>
    </g>
    <g>
      <path class="st2" d="M255.7,203.83c2.62,13.31,3.98,18.05-1.33,30.94-4,7-10,13-14,20,4,10,18,5,26,2,3-2,6-6,5-10-1-2-4.02-4.18-3-7,6.23-17.16,23.75-37.12,9.54-51.55"/>
      <path class="st2" d="M254.37,199.49"/>
      <line class="st2" x1="268.37" y1="239.77" x2="254.37" y2="234.77"/>
      <line class="st2" x1="244.64" y1="259.24" x2="252.05" y2="249.53"/>
    </g>
    <path class="st2" d="M226.81,189.89c2.09,2.12,4.11,3.29,5.65,3.98,4.73,2.11,6.84.76,9.93,2.26,6.4,3.1,5.68,13.23,8.7,13.37,2.99.14,4.4-9.74,7.91-9.8,3.58-.06,5.8,10.17,7.91,9.8,2.15-.37-.38-10.94,5.08-17.32,3.41-3.99,8.78-5,12.58-5.25"/>
    <path class="st2" d="M238.81,195.54c-1.73,4.12.19,12.61,2.56,13.26,1.66.46,3.9-4.67,5.36-6.49"/>
    <path class="st2" d="M255.7,203.83c-.17,1.82,1.09,6.59,2.47,7.1,1.8.65,4.64-4.34,5.17-6.82"/>
    <g>
      <path class="st2" d="M303.27,246.01c-3.68,7.37-15.01,11.93-13.45,22,7.69,7.34,20.81,4.91,28.1-1.77,3.17-3.87,1.85-10.28-1.32-14.51"/>
      <line class="st2" x1="317.02" y1="251.58" x2="303.25" y2="245.97"/>
      <line class="st2" x1="293.02" y1="269.92" x2="301.57" y2="260.52"/>
    </g>
    <path class="st2" d="M316.77,250.97l4.25-3.41"/>
    <path class="st2" d="M353.38,200.99c.71,2.69,2.22,4.52,4.45,5.64.69.35,1.53-.16,1.58-.94.33-5.19-2.03-9.72-2.17-15,0-.31.12-.61.34-.83.5-.49,1.17-1.11,1.91-1.62.89-.61.49-2.02-.59-2.03-.89,0-1.78-.11-2.67-1-1.97-1.97-1.02-5.9-1-7.92,0-.05,0-.1.02-.16,6.18-33.33,1.71-57.96-9.93-76.13-16.75-26.15-47.31-36.13-61.78-40.09-53.27-14.6-149.9-6.55-157.31-9.69-4.18-1.77-4.56-4.11-4.56-4.11-.45-.49-.39-1.27.16-1.65,5.72-3.9,34.24-7.74,30.77-11.18-8.16-6.57-20.62-7.96-28.49-.96-1.9,1.72-8.76,3.02-11.38,1.31-.31-.2-.49-.56-.49-.93v-1.04c0-.29.11-.56.31-.76,7.76-8,10.58-19.79,2.69-27.68-2-1-3,2-3,3-1,8-8.58,17.18-13.71,24.5-1.07,1.52,1.41-2.51.37-1.11"/>
    <path class="st2" d="M344.35,176.21l-3.66,3.52c-.72.69-.23,1.91.77,1.91h1.5c.71,0,1.24.66,1.08,1.35l-2.04,9.12c-.2.89.7,1.63,1.53,1.26l1.85-.82c.83-.36,1.72.36,1.53,1.24l-1.48,7.12c-.16.77.52,1.46,1.29,1.32"/>
    <line class="st2" x1="346.74" y1="202.24" x2="353.4" y2="201.41"/>
    <path class="st6" d="M307.73,164.48c3.62-6.76-.79-14.52-5.78-18.63-6.45-5.3-15.9-6.16-22.71-4.56-9.37,2.2-8.73,7.9-19.98,11.12-7.72,2.21-12.25.74-15.12,4.09-2.53,2.95-1.99,7.58,0,10.64,4.37,6.75,17.57,8.78,26.68,6.08,5.91-1.75,5.22,6.71,10.46,6.65,6.32-.07,9.73-7.33,15.33-7.79,5.1-.43,9.29-4.2,11.12-7.6h0Z"/>
    <path class="st6" d="M213.85,102.2c9.48-5.85,14.02-17.89,14.44-25.91.55-10.36-5.58-17.27-12.24-19.58-9.15-3.18-14.4,4.03-25.98.9-7.94-2.15-9.82-6.73-15.31-4.5-4.84,1.96-9.09,7.84-10.7,12.75-3.55,10.81,4.19,21.44,13.65,23.87,6.13,1.58,9.53-1.19,13.48,2,4.75,3.84,2.16,9.75,6.77,12.67,4.21,2.66,11.1.75,15.88-2.2h0Z"/>
    <path class="st6" d="M88.29,49.79c2.09-.89,2.63-3.48,2.33-5.33-.38-2.39-2.26-4.31-4.05-5.18-2.46-1.2-3.41.22-6.48-1.08-2.1-.9-2.8-2.06-4.07-1.81-1.12.22-1.89,1.38-2.05,2.44-.35,2.35,2.12,5.21,4.61,6.25,1.62.67,2.33.2,3.48,1.14,1.38,1.13,1.03,2.38,2.33,3.29,1.19.83,2.82.73,3.88.28h.02Z"/>
  </g>
  <g id="Layer_2">
    <path class="st5" d="M168.81,5.41"/>
    <path class="st1" d="M317.02,101.51"/>
    <polygon class="st4" points="281.69 102.89 275.75 92.61 281.69 82.32 293.56 82.32 299.5 92.61 293.56 102.89 281.69 102.89"/>
  </g>
</svg>