<svg width="27" height="25" viewBox="0 0 27 25" fill="none" xmlns="http://www.w3.org/2000/svg">
<path d="M20.2425 4.60278C19.3573 4.60278 18.6942 5.23025 18.6942 6.06688C18.6942 6.90351 19.3573 7.53098 20.2425 7.53098C21.1278 7.53098 21.7908 6.90351 21.7908 6.06688C21.7908 5.23025 21.1278 4.60278 20.2425 4.60278Z" fill="black"/>
<path d="M13.2735 6.4856C9.62317 6.4856 6.74701 9.31004 6.74701 12.6582C6.74701 16.0063 9.73427 18.8308 13.2735 18.8308C16.8127 18.8308 19.7999 16.0063 19.7999 12.6582C19.7999 9.31004 16.9238 6.4856 13.2735 6.4856ZM13.2735 16.6338C10.951 16.6338 9.06945 14.8552 9.06945 12.6582C9.06945 10.4612 10.9493 8.68257 13.2735 8.68257C15.5977 8.68257 17.4775 10.4612 17.4775 12.6582C17.4775 14.8552 15.5977 16.6338 13.2735 16.6338Z" fill="black"/>
<path d="M18.5831 0H8.07476C3.53921 0 0 3.34816 0 7.53129V17.4687C0 21.6535 3.53921 25 7.96366 25H18.472C22.8964 25 26.4356 21.6518 26.4356 17.4687V7.53129C26.5467 3.34651 23.0057 0 18.5813 0H18.5831ZM24.0021 17.5741C24.0021 20.3985 21.5685 22.8047 18.472 22.8047H7.96366C4.97641 22.8047 2.43354 20.504 2.43354 17.5741V7.63669C2.43354 4.81225 4.86708 2.40613 7.96366 2.40613H18.472C21.4592 2.40613 24.0021 4.70685 24.0021 7.63669V17.5741Z" fill="black"/>
</svg>
