<?xml version="1.0" encoding="UTF-8"?>
<svg id="Layer_2" xmlns="http://www.w3.org/2000/svg" version="1.1" viewBox="0 0 185.13 193.2">
  <!-- Generator: Adobe Illustrator 30.2.1, SVG Export Plug-In . SVG Version: 2.1.1 Build 1)  -->
  <defs>
    <style>
      .st0 {
        fill: none;
        stroke: #231f20;
        stroke-miterlimit: 10;
        stroke-width: 8px;
      }
    </style>
  </defs>
  <path class="st0" d="M129.7,100.65c-15.53-35.77-17.24-51.88-24.93-52.14-5.24-.17-12.11,9-22.76,11.67-7.72,1.94-3.09.45-14.45-10.23-.55-.52-6.95-3.23-1.6-6.1,9.64-5.15,18.9-7.2,20.86-8.29,4.81-2.67-19.9,9.5-24.61,7.27-5.54-2.63-9.32-12.75-11.86-21.2-.73-2.43,13.51-15.67,29.14-16.58,3.59-.21,19.33-5.19,31.03,8.45,15.37,17.9,74.42,74.32,70.42,124.83-1.46,18.49-6.67,18.04-16.63,27.23-4.71,4.34-13.92,14.12-31.93,18.64-45.82,11.49-56.9.74-94.49-7.91-28.32-6.51-30.9-19.39-32.99-28.67-3.68-16.29,5.18-24.29,6.78-31.73,5.46-3.62,19.05-12.43,33.6-12.3,2.42.02,23.81,5.35,32,16.06,1.09,1.43,2.45,3.26,4.92,4.03,6.59,2.07,17.17-9.39,27-9.39,2.96,0,5.11.5,8.37,1.32,12.16,3.09,17.31,9.62,19.3,8.1,2.44-1.86-2.94-13.36-7.15-23.06Z"/>
  <line class="st0" x1="81.5" y1="123.71" x2="91.12" y2="140.09"/>
  <line class="st0" x1="82.78" y1="25.46" x2="87.59" y2="35.24"/>
</svg>