<?xml version="1.0" encoding="UTF-8"?>
<svg id="Layer_1" xmlns="http://www.w3.org/2000/svg" version="1.1" viewBox="0 0 295.53 374.72">
  <!-- Generator: Adobe Illustrator 30.2.1, SVG Export Plug-In . SVG Version: 2.1.1 Build 1)  -->
  <defs>
    <style>
      .st0 {
        fill: none;
        stroke: #231f20;
        stroke-miterlimit: 10;
        stroke-width: 8px;
      }
    </style>
  </defs>
  <g id="Layer_2">
    <path class="st0" d="M40.25,92.16c-5.29,9.62-14.29,17.62-16.29,29.62-1,2-3,3-3,5-1,12-4,22-3,34,2,18,7,33,16,49,15,25,31,46,49,69,7,9,13,17,22,24l6,9c1,1,3,2,4,3,18,21,37,39,61,52,2,1,5,2,7,3,12,5,28,5,37-5,49-51,63-119,72-187,5-41-3-83-32-114-8-9-19-14-29-19-12-5-24-6-36.89-7.23"/>
  </g>
  <g id="Layer_11">
    <path class="st0" d="M88.98,25.64c2.89-5.69,1.52-12.88,5.89-17.68,5.22-4.62,14.86-4.08,21.01-1.04,7.04,3.41,7.86,14.14,17.22,13.24,13.26-1.56,27.42-8.55,40.34-12.5,11.99-4.05,25.09-1.55,37.78-1.08,17.68,1.37,43.25,3.36,14.81,20.08-16.69,10.35-34.81,12.93-54.65,12.69-21.32.82-6.85,7.99,3.3,12.5,5.02,2.31,10.22,4.7,15.1,7.32,9,4.7,16.22,10.73,23.39,17.67,3.51,3.4,7.66,7.19,10.06,11.19,4.95,8.53-9.57,7.63-14.78,8.04-24.34.82-42.33-4.6-61.33-16.03-3.02-1.43-7.59-4.02-10.15-2.83-2.18,1.65-.02,5.99,1.04,8.66,7.9,15.27,15.28,31.78,14.7,49.78-.13,13.68-6.24,20.43-18.91,11.19-17.78-13.75-28.19-26.51-34.12-49.44-1.01-3.55-2.14-7.5-3.48-10.78-2.01-4.87-4.64-8.61-10.03-8.43-8.31.73-15.81,6.48-23.64,9.09-11.61,4.1-26.89,7.52-39.95,10.93-5.46,1.06-16.37,4.06-18.27.38-1.54-5.21,11.26-17.87,14.86-22.19,18.59-21.45,38-26.68,62.6-42.23,3.23-2.42,5.56-5,7.12-8.37l.08-.17h0Z"/>
    <line class="st0" x1="75.53" y1="116.03" x2="71.29" y2="130.43"/>
    <line class="st0" x1="50.56" y1="145.48" x2="52.55" y2="166.2"/>
    <line class="st0" x1="90.93" y1="166.2" x2="96.89" y2="182.09"/>
    <line class="st0" x1="71.29" y1="204.97" x2="84" y2="221.91"/>
    <line class="st0" x1="119.13" y1="259.18" x2="133.13" y2="276.12"/>
    <line class="st0" x1="141.92" y1="192.78" x2="150.74" y2="212.92"/>
    <line class="st0" x1="179.71" y1="116.03" x2="188.19" y2="130.43"/>
    <line class="st0" x1="244.67" y1="85.78" x2="252.33" y2="106.86"/>
    <line class="st0" x1="251.29" y1="164.52" x2="245.71" y2="183.77"/>
    <line class="st0" x1="194.96" y1="164.52" x2="200.04" y2="188.03"/>
    <line class="st0" x1="183.95" y1="226.99" x2="183.95" y2="250.71"/>
    <line class="st0" x1="213.35" y1="275.78" x2="219.57" y2="293.2"/>
    <line class="st0" x1="244.43" y1="238.85" x2="236.39" y2="255.79"/>
    <line class="st0" x1="182.68" y1="307.46" x2="193.69" y2="323.56"/>
  </g>
</svg>