<svg width="32" height="26" viewBox="0 0 32 26" fill="none" xmlns="http://www.w3.org/2000/svg">
<path d="M24.1444 24.1455C27.5257 24.2841 30.3701 21.3322 30.5013 17.5486V7.7517C30.3683 3.96813 27.5257 1.01793 24.1444 1.15483H7.50692C4.12555 1.01622 1.28122 3.96813 1.15002 7.7517V17.5486C1.28122 21.3322 4.12555 24.2824 7.50692 24.1455H24.1444Z" stroke="black" stroke-width="2.3" stroke-linecap="round" stroke-linejoin="round"/>
<path d="M15.104 8.01186L19.7431 11.5387C20.044 11.7355 20.2277 12.0949 20.2277 12.4851C20.2277 12.8752 20.0422 13.2346 19.7431 13.4314L15.104 17.2902C14.2241 17.9593 12.8912 17.3895 12.8912 16.3439V8.95475C12.8912 7.91603 14.2259 7.34447 15.104 8.01186Z" stroke="black" stroke-width="2.3" stroke-linecap="round" stroke-linejoin="round"/>
</svg>
